<svg xmlns="http://www.w3.org/2000/svg" width="50" height="50.101" viewBox="0 0 50 50.101"><path d="M50.5,38.01v7.542a5.028,5.028,0,0,1-5.481,5.028,49.753,49.753,0,0,1-21.7-7.718A49.024,49.024,0,0,1,8.239,27.778,49.753,49.753,0,0,1,.52,5.981,5.028,5.028,0,0,1,5.523.5h7.542a5.028,5.028,0,0,1,5.028,4.324,32.28,32.28,0,0,0,1.76,7.065,5.028,5.028,0,0,1-1.131,5.3l-3.193,3.193A40.225,40.225,0,0,0,30.614,35.471l3.193-3.193a5.028,5.028,0,0,1,5.3-1.131,32.281,32.281,0,0,0,7.065,1.76C48.7,33.263,50.5,38.01,50.5,38.01Z" transform="translate(-0.5 -0.5)" fill="#ffc300" fill-rule="evenodd"/></svg>