<svg xmlns="http://www.w3.org/2000/svg" width="61.333" height="46" viewBox="0 0 61.333 46"><path d="M60.171,79.19a.721.721,0,0,1,1.162.563v24.5a5.751,5.751,0,0,1-5.75,5.75H5.75A5.751,5.751,0,0,1,0,104.25V79.765A.716.716,0,0,1,1.162,79.2C3.845,81.286,7.4,83.933,19.622,92.81c2.528,1.845,6.792,5.726,11.045,5.7,4.277.036,8.625-3.929,11.057-5.7C53.942,83.933,57.488,81.274,60.171,79.19Zm-29.5,15.477c2.779.048,6.78-3.5,8.793-4.959,15.9-11.536,17.106-12.542,20.772-15.417a2.867,2.867,0,0,0,1.1-2.264V69.75A5.751,5.751,0,0,0,55.583,64H5.75A5.751,5.751,0,0,0,0,69.75v2.276A2.884,2.884,0,0,0,1.1,74.29c3.666,2.863,4.876,3.881,20.772,15.417C23.886,91.169,27.887,94.715,30.667,94.667Z" transform="translate(0 -64)" fill="#ffc300"/></svg>