<?xml version="1.0" encoding="utf-8"?>
<svg version="1.1" xmlns="http://www.w3.org/2000/svg" xmlns:xlink="http://www.w3.org/1999/xlink" height="34.749999999999545" width="320">
  <defs>
    <path id="path-1" opacity="1" fill-rule="evenodd" d="M311.84375,28.124999999999826 C311.84375,28.124999999999826 306.28125,26.874999999999837 304,26.999999999999826 C304,26.999999999999826 302.375,27.09374999999983 301.9375,26.093749999999837 C301.9375,26.093749999999837 300.31249999999994,24.78124999999985 299.21874999999994,24.874999999999854 L297.81249999999994,23.124999999999858 C297.81249999999994,23.124999999999858 296.625,21.374999999999865 295.09374999999994,22.343749999999865 L293.56249999999994,22.874999999999858 C293.56249999999994,22.874999999999858 288.96874999999994,20.031249999999872 287.34374999999994,19.59374999999988 C287.34374999999994,19.59374999999988 284.93749999999994,18.406249999999886 284.28125,18.406249999999886 L280.25,16.999999999999893 L276.875,15.718749999999895 L274.6875,13.406249999999918 L274.03125,12.312499999999927 L272.9375,11.218749999999932 L270.875,10.124999999999941 L269.125,10.749999999999938 L266.28125,12.68749999999992 L264.3125,14.843749999999899 L263.21875,15.718749999999895 L262.125,16.781249999999883 L259.1875,16.37499999999988 L257.78125,15.781249999999892 L254.625,15.781249999999892 L253.21875,16.37499999999988 L252.78125,15.718749999999877 L249.9375,15.093749999999883 L246.34375,15.781249999999874 L244.09374999999997,15.781249999999874 L242.53124999999997,16.749999999999876 L240.90624999999994,15.749999999999885 L239.81249999999994,14.843749999999899 L237.84374999999997,13.531249999999911 L235.5625,12.531249999999922 L233.375,11.968749999999922 L231.09375,12.499999999999915 L229.78125,12.937499999999904 L225.3125,12.71874999999991 L223.90625,13.593749999999908 L222.71875,12.937499999999904 L221.40625,13.28124999999991 L219.5625,12.624999999999908 L218.3125,12.624999999999908 L217.625,11.937499999999915 L216.21875,10.906249999999918 L215.78125,8.624999999999929 L214.90625,7.562499999999945 L211.875,7.562499999999945 L211.25,6.21874999999995 L210.0625,5.687499999999958 L208.40625000000003,5.687499999999958 L207.12500000000003,5.218749999999961 L205.71875000000003,4.749999999999964 L202.75000000000003,4.749999999999964 L201.34375000000003,3.5312499999999796 L200.90625000000003,2.40624999999998 L200.46875000000003,0.4374999999999898 L199.37500000000003,0 L180.34375000000006,0 L179.18750000000003,0.31249999999999767 L165.18750000000006,0.31249999999999767 L161.90625000000006,0.6249999999999958 L159.18750000000006,0.6249999999999958 L147.1875,0.2187500000000128 L145.875,0.6250000000000134 L135.28125,0.5000000000000214 L123.81250000000001,0.9375000000000112 L120.43750000000001,1.0312500000000142 L119.03125000000001,1.468750000000004 L118.15625,2.5624999999999964 L118.0625,3.656249999999989 L117.1875,5.06249999999998 L116.96875,6.593749999999963 L116.21875000000001,7.124999999999955 L115.03125,7.562499999999945 L113.84375,6.906249999999942 L111.90624999999999,5.937499999999941 L107.65624999999999,5.406249999999949 L105.81249999999999,5.499999999999952 L105.0625,4.3124999999999565 L103.21875,2.9999999999999685 L100.71875,2.249999999999981 L98.87500000000001,1.4999999999999933 L95.71875,1.0625000000000033 L92.4375,0.31250000000001543 L90.90625000000001,0.7500000000000056 L90.15625000000001,1.8437499999999982 L89.06250000000001,3.1562499999999853 L88.40625000000001,4.999999999999966 L88.50000000000001,5.968749999999965 L87.53125,6.624999999999969 L86.21875000000001,6.18749999999998 L84.03125000000001,5.968749999999984 L82.18750000000001,6.406249999999973 L80.56250000000003,7.156249999999962 L77.93750000000001,8.562499999999952 L76.31250000000003,9.093749999999943 L72.93750000000001,10.187499999999938 L70.21875000000003,10.624999999999927 L68.59375000000003,11.28124999999993 L67.62500000000003,12.156249999999927 L65.65625000000003,14.437499999999917 L65.12500000000003,14.96874999999991 L64.81250000000003,15.62499999999991 L64.28125000000003,16.499999999999908 L63.40625000000003,17.5937499999999 L60.46875000000003,18.999999999999893 L58.18750000000002,19.093749999999893 L56.87500000000003,19.531249999999886 L55.34375000000003,20.624999999999876 L51.31250000000002,21.812499999999872 L49.46875000000002,22.03124999999987 L47.187500000000014,23.343749999999854 L43.50000000000002,23.781249999999844 L41.09375000000003,24.874999999999837 L39.12500000000003,25.96874999999983 L37.06250000000003,26.40624999999982 L35.87500000000003,26.46874999999981 L34.562500000000036,26.53124999999981 L34.562500000000036,26.624999999999815 L33.062500000000036,26.78124999999981 L27.875,26.78124999999981 L25.90625,27.906249999999815 L24.28125,28.374999999999808 L22.625,28.374999999999808 L17.656250000000004,28.999999999999805 L16.531250000000004,28.999999999999805 L15.781250000000002,29.812499999999808 L15.500000000000004,30.374999999999805 L13.375000000000004,30.531249999999805 L9.125000000000004,30.968749999999797 L6.9375000000000036,31.49999999999979 L3.8750000000000036,32.03124999999978 L2.906250000000003,32.28124999999978 L2.156250000000003,33.09374999999979 L1.5625,33.09374999999979 L0,34.09374999999977 L0,34.687499999999766 L320,34.687499999999766 "/>
  </defs>
  <g opacity="1">
    <use xlink:href="#path-1" fill="rgb(72,72,72)" fill-opacity="1"/>
  </g>
</svg>